<mxfile host="app.diagrams.net" modified="2023-09-01T19:07:36.587Z" agent="Mozilla/5.0 (Windows NT 10.0; Win64; x64) AppleWebKit/537.36 (KHTML, like Gecko) Chrome/116.0.0.0 Safari/537.36 Edg/116.0.1938.62" etag="gcpFzZQOIvW_UmmR5eKq" version="21.7.1" type="device">
  <diagram id="C5RBs43oDa-KdzZeNtuy" name="Page-1">
    <mxGraphModel dx="1386" dy="751" grid="1" gridSize="10" guides="1" tooltips="1" connect="1" arrows="1" fold="1" page="1" pageScale="1" pageWidth="827" pageHeight="1169" math="0" shadow="0">
      <root>
        <mxCell id="WIyWlLk6GJQsqaUBKTNV-0" />
        <mxCell id="WIyWlLk6GJQsqaUBKTNV-1" parent="WIyWlLk6GJQsqaUBKTNV-0" />
        <mxCell id="WIyWlLk6GJQsqaUBKTNV-2" value="" style="rounded=0;html=1;jettySize=auto;orthogonalLoop=1;fontSize=11;endArrow=block;endFill=0;endSize=8;strokeWidth=1;shadow=0;labelBackgroundColor=none;edgeStyle=orthogonalEdgeStyle;" parent="WIyWlLk6GJQsqaUBKTNV-1" source="WIyWlLk6GJQsqaUBKTNV-3" target="WIyWlLk6GJQsqaUBKTNV-6" edge="1">
          <mxGeometry relative="1" as="geometry" />
        </mxCell>
        <mxCell id="WIyWlLk6GJQsqaUBKTNV-3" value="Login" style="rounded=1;whiteSpace=wrap;html=1;fontSize=12;glass=0;strokeWidth=1;shadow=0;" parent="WIyWlLk6GJQsqaUBKTNV-1" vertex="1">
          <mxGeometry x="330" y="60" width="120" height="40" as="geometry" />
        </mxCell>
        <mxCell id="CuM33-86okwvFGSKFOXj-2" style="edgeStyle=orthogonalEdgeStyle;rounded=0;orthogonalLoop=1;jettySize=auto;html=1;entryX=0.5;entryY=0;entryDx=0;entryDy=0;" parent="WIyWlLk6GJQsqaUBKTNV-1" source="WIyWlLk6GJQsqaUBKTNV-6" target="WIyWlLk6GJQsqaUBKTNV-7" edge="1">
          <mxGeometry relative="1" as="geometry" />
        </mxCell>
        <mxCell id="CuM33-86okwvFGSKFOXj-3" value="&lt;b&gt;Redis has the username as blacklisted&lt;/b&gt;" style="edgeLabel;html=1;align=center;verticalAlign=middle;resizable=0;points=[];" parent="CuM33-86okwvFGSKFOXj-2" vertex="1" connectable="0">
          <mxGeometry x="-0.4" y="1" relative="1" as="geometry">
            <mxPoint x="-90" y="59" as="offset" />
          </mxGeometry>
        </mxCell>
        <mxCell id="CuM33-86okwvFGSKFOXj-5" style="edgeStyle=orthogonalEdgeStyle;rounded=0;orthogonalLoop=1;jettySize=auto;html=1;entryX=0.5;entryY=0;entryDx=0;entryDy=0;" parent="WIyWlLk6GJQsqaUBKTNV-1" source="WIyWlLk6GJQsqaUBKTNV-6" target="CuM33-86okwvFGSKFOXj-4" edge="1">
          <mxGeometry relative="1" as="geometry" />
        </mxCell>
        <mxCell id="CuM33-86okwvFGSKFOXj-6" value="&lt;b&gt;The user exists but the password is not correct&lt;/b&gt;" style="edgeLabel;html=1;align=center;verticalAlign=middle;resizable=0;points=[];" parent="CuM33-86okwvFGSKFOXj-5" vertex="1" connectable="0">
          <mxGeometry x="-0.15" y="-3" relative="1" as="geometry">
            <mxPoint x="49" y="57" as="offset" />
          </mxGeometry>
        </mxCell>
        <mxCell id="CuM33-86okwvFGSKFOXj-8" style="edgeStyle=orthogonalEdgeStyle;rounded=0;orthogonalLoop=1;jettySize=auto;html=1;entryX=0.5;entryY=0;entryDx=0;entryDy=0;" parent="WIyWlLk6GJQsqaUBKTNV-1" source="WIyWlLk6GJQsqaUBKTNV-6" target="CuM33-86okwvFGSKFOXj-7" edge="1">
          <mxGeometry relative="1" as="geometry" />
        </mxCell>
        <mxCell id="CuM33-86okwvFGSKFOXj-9" value="&lt;b&gt;Credentials match&lt;/b&gt;" style="edgeLabel;html=1;align=center;verticalAlign=middle;resizable=0;points=[];" parent="CuM33-86okwvFGSKFOXj-8" vertex="1" connectable="0">
          <mxGeometry x="-0.44" y="-2" relative="1" as="geometry">
            <mxPoint x="2" y="6" as="offset" />
          </mxGeometry>
        </mxCell>
        <mxCell id="WIyWlLk6GJQsqaUBKTNV-6" value="Check credentials" style="rhombus;whiteSpace=wrap;html=1;shadow=0;fontFamily=Helvetica;fontSize=12;align=center;strokeWidth=1;spacing=6;spacingTop=-4;" parent="WIyWlLk6GJQsqaUBKTNV-1" vertex="1">
          <mxGeometry x="340" y="130" width="100" height="80" as="geometry" />
        </mxCell>
        <mxCell id="WIyWlLk6GJQsqaUBKTNV-7" value="Bad Request" style="rounded=1;whiteSpace=wrap;html=1;fontSize=12;glass=0;strokeWidth=1;shadow=0;" parent="WIyWlLk6GJQsqaUBKTNV-1" vertex="1">
          <mxGeometry x="100" y="260" width="130" height="50" as="geometry" />
        </mxCell>
        <mxCell id="CuM33-86okwvFGSKFOXj-4" value="Bad Request" style="rounded=1;whiteSpace=wrap;html=1;fontSize=12;glass=0;strokeWidth=1;shadow=0;" parent="WIyWlLk6GJQsqaUBKTNV-1" vertex="1">
          <mxGeometry x="540" y="260" width="140" height="50" as="geometry" />
        </mxCell>
        <mxCell id="CuM33-86okwvFGSKFOXj-7" value="200 OK&lt;br&gt;accessToken, refreshToken" style="rounded=1;whiteSpace=wrap;html=1;fontSize=12;glass=0;strokeWidth=1;shadow=0;" parent="WIyWlLk6GJQsqaUBKTNV-1" vertex="1">
          <mxGeometry x="325" y="260" width="130" height="50" as="geometry" />
        </mxCell>
        <mxCell id="CuM33-86okwvFGSKFOXj-10" value="" style="rounded=0;html=1;jettySize=auto;orthogonalLoop=1;fontSize=11;endArrow=block;endFill=0;endSize=8;strokeWidth=1;shadow=0;labelBackgroundColor=none;edgeStyle=orthogonalEdgeStyle;" parent="WIyWlLk6GJQsqaUBKTNV-1" source="CuM33-86okwvFGSKFOXj-11" target="CuM33-86okwvFGSKFOXj-18" edge="1">
          <mxGeometry relative="1" as="geometry" />
        </mxCell>
        <mxCell id="CuM33-86okwvFGSKFOXj-11" value="Reissue tokens using refresh token" style="rounded=1;whiteSpace=wrap;html=1;fontSize=12;glass=0;strokeWidth=1;shadow=0;" parent="WIyWlLk6GJQsqaUBKTNV-1" vertex="1">
          <mxGeometry x="330" y="350" width="120" height="40" as="geometry" />
        </mxCell>
        <mxCell id="CuM33-86okwvFGSKFOXj-12" style="edgeStyle=orthogonalEdgeStyle;rounded=0;orthogonalLoop=1;jettySize=auto;html=1;entryX=0.5;entryY=0;entryDx=0;entryDy=0;" parent="WIyWlLk6GJQsqaUBKTNV-1" source="CuM33-86okwvFGSKFOXj-18" target="CuM33-86okwvFGSKFOXj-19" edge="1">
          <mxGeometry relative="1" as="geometry" />
        </mxCell>
        <mxCell id="CuM33-86okwvFGSKFOXj-13" value="&lt;b&gt;Invalid token&lt;/b&gt;" style="edgeLabel;html=1;align=center;verticalAlign=middle;resizable=0;points=[];" parent="CuM33-86okwvFGSKFOXj-12" vertex="1" connectable="0">
          <mxGeometry x="-0.4" y="1" relative="1" as="geometry">
            <mxPoint x="85" y="66" as="offset" />
          </mxGeometry>
        </mxCell>
        <mxCell id="CuM33-86okwvFGSKFOXj-14" style="edgeStyle=orthogonalEdgeStyle;rounded=0;orthogonalLoop=1;jettySize=auto;html=1;entryX=0.5;entryY=0;entryDx=0;entryDy=0;" parent="WIyWlLk6GJQsqaUBKTNV-1" source="CuM33-86okwvFGSKFOXj-18" target="CuM33-86okwvFGSKFOXj-20" edge="1">
          <mxGeometry relative="1" as="geometry" />
        </mxCell>
        <mxCell id="CuM33-86okwvFGSKFOXj-15" value="&lt;b style=&quot;border-color: var(--border-color);&quot;&gt;Redis has the username as blacklisted&lt;/b&gt;" style="edgeLabel;html=1;align=center;verticalAlign=middle;resizable=0;points=[];" parent="CuM33-86okwvFGSKFOXj-14" vertex="1" connectable="0">
          <mxGeometry x="-0.15" y="-3" relative="1" as="geometry">
            <mxPoint x="-39" y="68" as="offset" />
          </mxGeometry>
        </mxCell>
        <mxCell id="CuM33-86okwvFGSKFOXj-16" style="edgeStyle=orthogonalEdgeStyle;rounded=0;orthogonalLoop=1;jettySize=auto;html=1;entryX=0.5;entryY=0;entryDx=0;entryDy=0;" parent="WIyWlLk6GJQsqaUBKTNV-1" source="CuM33-86okwvFGSKFOXj-18" target="CuM33-86okwvFGSKFOXj-21" edge="1">
          <mxGeometry relative="1" as="geometry" />
        </mxCell>
        <mxCell id="CuM33-86okwvFGSKFOXj-17" value="&lt;b&gt;Valid user&lt;/b&gt;" style="edgeLabel;html=1;align=center;verticalAlign=middle;resizable=0;points=[];" parent="CuM33-86okwvFGSKFOXj-16" vertex="1" connectable="0">
          <mxGeometry x="-0.44" y="-2" relative="1" as="geometry">
            <mxPoint x="2" y="6" as="offset" />
          </mxGeometry>
        </mxCell>
        <mxCell id="CuM33-86okwvFGSKFOXj-18" value="Check refreshToken" style="rhombus;whiteSpace=wrap;html=1;shadow=0;fontFamily=Helvetica;fontSize=12;align=center;strokeWidth=1;spacing=6;spacingTop=-4;" parent="WIyWlLk6GJQsqaUBKTNV-1" vertex="1">
          <mxGeometry x="335" y="420" width="110" height="90" as="geometry" />
        </mxCell>
        <mxCell id="CuM33-86okwvFGSKFOXj-19" value="Bad Request" style="rounded=1;whiteSpace=wrap;html=1;fontSize=12;glass=0;strokeWidth=1;shadow=0;" parent="WIyWlLk6GJQsqaUBKTNV-1" vertex="1">
          <mxGeometry x="550" y="560" width="130" height="50" as="geometry" />
        </mxCell>
        <mxCell id="CuM33-86okwvFGSKFOXj-20" value="Bad Request" style="rounded=1;whiteSpace=wrap;html=1;fontSize=12;glass=0;strokeWidth=1;shadow=0;" parent="WIyWlLk6GJQsqaUBKTNV-1" vertex="1">
          <mxGeometry x="90" y="560" width="140" height="50" as="geometry" />
        </mxCell>
        <mxCell id="CuM33-86okwvFGSKFOXj-21" value="200 OK&lt;br&gt;accessToken, refreshToken" style="rounded=1;whiteSpace=wrap;html=1;fontSize=12;glass=0;strokeWidth=1;shadow=0;" parent="WIyWlLk6GJQsqaUBKTNV-1" vertex="1">
          <mxGeometry x="325" y="560" width="130" height="50" as="geometry" />
        </mxCell>
        <mxCell id="kOZlnuyiMpVYfoPFqKKT-0" value="" style="rounded=0;html=1;jettySize=auto;orthogonalLoop=1;fontSize=11;endArrow=block;endFill=0;endSize=8;strokeWidth=1;shadow=0;labelBackgroundColor=none;edgeStyle=orthogonalEdgeStyle;" edge="1" parent="WIyWlLk6GJQsqaUBKTNV-1" source="kOZlnuyiMpVYfoPFqKKT-1" target="kOZlnuyiMpVYfoPFqKKT-8">
          <mxGeometry relative="1" as="geometry" />
        </mxCell>
        <mxCell id="kOZlnuyiMpVYfoPFqKKT-1" value="Sign-up" style="rounded=1;whiteSpace=wrap;html=1;fontSize=12;glass=0;strokeWidth=1;shadow=0;" vertex="1" parent="WIyWlLk6GJQsqaUBKTNV-1">
          <mxGeometry x="1010" y="60" width="120" height="40" as="geometry" />
        </mxCell>
        <mxCell id="kOZlnuyiMpVYfoPFqKKT-2" style="edgeStyle=orthogonalEdgeStyle;rounded=0;orthogonalLoop=1;jettySize=auto;html=1;entryX=0.5;entryY=0;entryDx=0;entryDy=0;" edge="1" parent="WIyWlLk6GJQsqaUBKTNV-1" source="kOZlnuyiMpVYfoPFqKKT-8" target="kOZlnuyiMpVYfoPFqKKT-9">
          <mxGeometry relative="1" as="geometry" />
        </mxCell>
        <mxCell id="kOZlnuyiMpVYfoPFqKKT-3" value="&lt;b&gt;Invalid sign-up form&lt;/b&gt;" style="edgeLabel;html=1;align=center;verticalAlign=middle;resizable=0;points=[];" vertex="1" connectable="0" parent="kOZlnuyiMpVYfoPFqKKT-2">
          <mxGeometry x="-0.4" y="1" relative="1" as="geometry">
            <mxPoint x="-90" y="59" as="offset" />
          </mxGeometry>
        </mxCell>
        <mxCell id="kOZlnuyiMpVYfoPFqKKT-6" style="edgeStyle=orthogonalEdgeStyle;rounded=0;orthogonalLoop=1;jettySize=auto;html=1;entryX=0.5;entryY=0;entryDx=0;entryDy=0;" edge="1" parent="WIyWlLk6GJQsqaUBKTNV-1" source="kOZlnuyiMpVYfoPFqKKT-8" target="kOZlnuyiMpVYfoPFqKKT-11">
          <mxGeometry relative="1" as="geometry" />
        </mxCell>
        <mxCell id="kOZlnuyiMpVYfoPFqKKT-7" value="&lt;b&gt;Valid sign-up form&lt;br&gt;&lt;/b&gt;" style="edgeLabel;html=1;align=center;verticalAlign=middle;resizable=0;points=[];" vertex="1" connectable="0" parent="kOZlnuyiMpVYfoPFqKKT-6">
          <mxGeometry x="-0.44" y="-2" relative="1" as="geometry">
            <mxPoint x="2" y="6" as="offset" />
          </mxGeometry>
        </mxCell>
        <mxCell id="kOZlnuyiMpVYfoPFqKKT-8" value="&lt;br&gt;Valid sign-up&lt;br&gt;form" style="rhombus;whiteSpace=wrap;html=1;shadow=0;fontFamily=Helvetica;fontSize=12;align=center;strokeWidth=1;spacing=6;spacingTop=-4;" vertex="1" parent="WIyWlLk6GJQsqaUBKTNV-1">
          <mxGeometry x="1020" y="130" width="100" height="80" as="geometry" />
        </mxCell>
        <mxCell id="kOZlnuyiMpVYfoPFqKKT-9" value="Bad Request" style="rounded=1;whiteSpace=wrap;html=1;fontSize=12;glass=0;strokeWidth=1;shadow=0;" vertex="1" parent="WIyWlLk6GJQsqaUBKTNV-1">
          <mxGeometry x="780" y="260" width="130" height="50" as="geometry" />
        </mxCell>
        <mxCell id="kOZlnuyiMpVYfoPFqKKT-13" style="edgeStyle=orthogonalEdgeStyle;rounded=0;orthogonalLoop=1;jettySize=auto;html=1;entryX=0.5;entryY=0;entryDx=0;entryDy=0;" edge="1" parent="WIyWlLk6GJQsqaUBKTNV-1" source="kOZlnuyiMpVYfoPFqKKT-11" target="kOZlnuyiMpVYfoPFqKKT-12">
          <mxGeometry relative="1" as="geometry" />
        </mxCell>
        <mxCell id="kOZlnuyiMpVYfoPFqKKT-11" value="Send verification email" style="rounded=1;whiteSpace=wrap;html=1;fontSize=12;glass=0;strokeWidth=1;shadow=0;" vertex="1" parent="WIyWlLk6GJQsqaUBKTNV-1">
          <mxGeometry x="1005" y="260" width="130" height="50" as="geometry" />
        </mxCell>
        <mxCell id="kOZlnuyiMpVYfoPFqKKT-12" value="Client opens the email and signed-up" style="rounded=1;whiteSpace=wrap;html=1;fontSize=12;glass=0;strokeWidth=1;shadow=0;" vertex="1" parent="WIyWlLk6GJQsqaUBKTNV-1">
          <mxGeometry x="1005" y="345" width="130" height="50" as="geometry" />
        </mxCell>
      </root>
    </mxGraphModel>
  </diagram>
</mxfile>
